# xmcd CD database file generated by OrangeCD 6.3
#
# Track frame offsets:
#	150
#	16342
#	35308
#	54220
#	69160
#	90195
#	115364
#	131378
#	146218
#	162857
#	181737
#	197206
#
# Disc length: 2886 seconds
#
# Revision: 1
# Processed by: cddbd v1.5.2PL0 Copyright (c) Steve Scherf et al.
# Submitted via: OrangeCD 6.3
#
DISCID=930b440c
DTITLE=Dolly Parton - Backwoods Barbie
DYEAR=2008
DGENRE=Country
TTITLE0=Better Get To Livin'
TTITLE1=Made Of Stone
TTITLE2=Drives Me Crazy
TTITLE3=Backwoods Barbie
TTITLE4=Jesus and Gravity
TTITLE5=Only Dreamin'
TTITLE6=The Tracks Of My Tears
TTITLE7=The Lonesomes
TTITLE8=Cologne
TTITLE9=Shinola
TTITLE10=I Will Forever Hate Roses
TTITLE11=Somebody's Everything
EXTD=
EXTT0=
EXTT1=
EXTT2=
EXTT3=
EXTT4=
EXTT5=
EXTT6=
EXTT7=
EXTT8=
EXTT9=
EXTT10=
EXTT11=
PLAYORDER=
